<svg width="411" height="292" viewBox="0 0 411 292" fill="none" xmlns="http://www.w3.org/2000/svg">
<path d="M410.765 64.6773C410.765 92.0425 389.089 114.226 362.351 114.226C335.612 114.226 313.936 92.0425 313.936 64.6773C313.936 37.312 335.612 15.1281 362.351 15.1281C389.089 15.1281 410.765 37.312 410.765 64.6773Z" fill="#F5850B"/>
<path d="M21.7546 88.08C9.73988 63.7265 19.7424 34.2442 44.0959 22.2295V22.2295C68.4494 10.2147 97.9317 20.2172 109.946 44.5707L188.263 203.316C200.278 227.669 190.275 257.152 165.922 269.166V269.166C141.569 281.181 112.086 271.179 100.071 246.825L21.7546 88.08Z" fill="#191847"/>
<path d="M169.687 88.08C157.672 63.7265 167.675 34.2442 192.028 22.2295V22.2295C216.382 10.2147 245.864 20.2172 257.879 44.5707L336.195 203.316C348.21 227.669 338.208 257.152 313.854 269.166V269.166C289.501 281.181 260.018 271.179 248.004 246.825L169.687 88.08Z" fill="#191847"/>
<path d="M167.193 45.3935C177.63 20.3233 206.415 8.46101 231.485 18.8982V18.8982C256.555 29.3354 268.417 58.1198 257.98 83.1899L189.947 246.607C179.51 271.677 150.725 283.539 125.655 273.102V273.102C100.585 262.665 88.7226 233.88 99.1598 208.81L167.193 45.3935Z" fill="#191847"/>
</svg>
